<svg width="165" height="166" viewBox="0 0 165 166" fill="none" xmlns="http://www.w3.org/2000/svg">
<mask id="path-1-inside-1_124_3158" fill="white">
<path d="M64.8438 23.123C77.906 23.1233 90.454 37.9482 103.516 37.9482H120.506C134.68 37.9482 141.767 37.9486 147.181 40.707C151.942 43.1334 155.814 47.0048 158.24 51.7666C160.999 57.1804 160.999 64.2683 160.999 78.4424V124.423C160.999 138.597 160.999 145.684 158.24 151.098C155.814 155.859 151.942 159.731 147.181 162.157C141.767 164.916 134.68 164.916 120.506 164.916H44.4941C30.32 164.916 23.2322 164.916 17.8184 162.157C13.0566 159.731 9.18513 155.859 6.75879 151.098C4.00035 145.684 4 138.597 4 124.423V48.4316C4.0001 34.4542 15.3311 23.123 29.3086 23.123H64.8438Z"/>
</mask>
<path d="M64.8438 23.123C77.906 23.1233 90.454 37.9482 103.516 37.9482H120.506C134.68 37.9482 141.767 37.9486 147.181 40.707C151.942 43.1334 155.814 47.0048 158.24 51.7666C160.999 57.1804 160.999 64.2683 160.999 78.4424V124.423C160.999 138.597 160.999 145.684 158.24 151.098C155.814 155.859 151.942 159.731 147.181 162.157C141.767 164.916 134.68 164.916 120.506 164.916H44.4941C30.32 164.916 23.2322 164.916 17.8184 162.157C13.0566 159.731 9.18513 155.859 6.75879 151.098C4.00035 145.684 4 138.597 4 124.423V48.4316C4.0001 34.4542 15.3311 23.123 29.3086 23.123H64.8438Z" fill="#D9D9D9"/>
<path d="M64.8438 23.123C77.906 23.1233 90.454 37.9482 103.516 37.9482H120.506C134.68 37.9482 141.767 37.9486 147.181 40.707C151.942 43.1334 155.814 47.0048 158.24 51.7666C160.999 57.1804 160.999 64.2683 160.999 78.4424V124.423C160.999 138.597 160.999 145.684 158.24 151.098C155.814 155.859 151.942 159.731 147.181 162.157C141.767 164.916 134.68 164.916 120.506 164.916H44.4941C30.32 164.916 23.2322 164.916 17.8184 162.157C13.0566 159.731 9.18513 155.859 6.75879 151.098C4.00035 145.684 4 138.597 4 124.423V48.4316C4.0001 34.4542 15.3311 23.123 29.3086 23.123H64.8438Z" fill="url(#paint0_radial_124_3158)" fill-opacity="0.2"/>
<path d="M64.8438 23.123L64.8438 22.7382H64.8438V23.123ZM120.506 37.9482V37.5634V37.9482ZM147.181 40.707L147.355 40.3642V40.3642L147.181 40.707ZM158.24 51.7666L158.583 51.5919V51.5919L158.24 51.7666ZM160.999 124.423H161.384H160.999ZM158.24 151.098L158.583 151.272V151.272L158.24 151.098ZM147.181 162.157L147.355 162.5V162.5L147.181 162.157ZM120.506 164.916V165.301V164.916ZM17.8184 162.157L17.6437 162.5H17.6437L17.8184 162.157ZM6.75879 151.098L6.41593 151.272H6.41593L6.75879 151.098ZM4 124.423H3.6152H4ZM4 48.4316L3.6152 48.4316V48.4316H4ZM103.516 37.9482V38.333H120.506V37.9482V37.5634H103.516V37.9482ZM120.506 37.9482V38.333C127.599 38.333 132.896 38.3334 137.097 38.6767C141.293 39.0197 144.362 39.7029 147.006 41.0499L147.181 40.707L147.355 40.3642C144.585 38.9527 141.404 38.2565 137.16 37.9097C132.92 37.5632 127.586 37.5634 120.506 37.5634V37.9482ZM147.181 40.707L147.006 41.0499C151.695 43.4393 155.508 47.2519 157.897 51.9413L158.24 51.7666L158.583 51.5919C156.12 46.7577 152.19 42.8274 147.355 40.3642L147.181 40.707ZM158.24 51.7666L157.897 51.9413C159.244 54.5849 159.928 57.6541 160.271 61.8507C160.614 66.0519 160.614 71.349 160.614 78.4424H160.999H161.384C161.384 71.3617 161.384 66.0278 161.038 61.788C160.691 57.5438 159.995 54.3621 158.583 51.5919L158.24 51.7666ZM160.999 78.4424H160.614V124.423H160.999H161.384V78.4424H160.999ZM160.999 124.423H160.614C160.614 131.516 160.614 136.813 160.271 141.014C159.928 145.21 159.244 148.279 157.897 150.923L158.24 151.098L158.583 151.272C159.995 148.502 160.691 145.321 161.038 141.077C161.384 136.837 161.384 131.503 161.384 124.423H160.999ZM158.24 151.098L157.897 150.923C155.508 155.612 151.695 159.425 147.006 161.814L147.181 162.157L147.355 162.5C152.19 160.037 156.12 156.107 158.583 151.272L158.24 151.098ZM147.181 162.157L147.006 161.814C144.362 163.161 141.293 163.845 137.097 164.188C132.896 164.531 127.599 164.531 120.506 164.531V164.916V165.301C127.586 165.301 132.92 165.301 137.16 164.955C141.404 164.608 144.585 163.912 147.355 162.5L147.181 162.157ZM120.506 164.916V164.531H44.4941V164.916V165.301H120.506V164.916ZM44.4941 164.916V164.531C37.4007 164.531 32.1036 164.531 27.9025 164.188C23.7058 163.845 20.6367 163.161 17.9931 161.814L17.8184 162.157L17.6437 162.5C20.4138 163.912 23.5955 164.608 27.8398 164.955C32.0795 165.301 37.4134 165.301 44.4941 165.301V164.916ZM17.8184 162.157L17.9931 161.814C13.3037 159.425 9.4911 155.612 7.10165 150.923L6.75879 151.098L6.41593 151.272C8.87917 156.107 12.8095 160.037 17.6437 162.5L17.8184 162.157ZM6.75879 151.098L7.10165 150.923C5.75467 148.279 5.07145 145.21 4.7285 141.014C4.38519 136.813 4.3848 131.516 4.3848 124.423H4H3.6152C3.6152 131.503 3.61498 136.837 3.96145 141.077C4.30829 145.321 5.00446 148.502 6.41593 151.272L6.75879 151.098ZM4 124.423H4.3848V48.4316H4H3.6152V124.423H4ZM4 48.4316L4.3848 48.4316C4.3849 34.6667 15.5437 23.5079 29.3086 23.5079V23.123V22.7382C15.1186 22.7382 3.6153 34.2417 3.6152 48.4316L4 48.4316ZM29.3086 23.123V23.5079H64.8438V23.123V22.7382H29.3086V23.123ZM64.8438 23.123L64.8437 23.5079C71.2511 23.508 77.5586 27.1474 83.9872 30.8688C90.3637 34.5599 96.8613 38.333 103.516 38.333V37.9482V37.5634C97.1089 37.5634 90.8014 33.9241 84.3728 30.2027C77.9963 26.5115 71.4987 22.7384 64.8438 22.7382L64.8438 23.123Z" fill="white" mask="url(#path-1-inside-1_124_3158)"/>
<rect x="4" y="58.4746" width="156.999" height="106.44" rx="25.3085" fill="black" fill-opacity="0.46"/>
<path d="M44.6758 58.7246H120.324C127.42 58.7246 132.802 58.7004 137.088 59.0195C141.372 59.3385 144.536 59.9992 147.201 61.3584C151.919 63.7642 155.713 67.5521 158.116 72.2734C159.474 74.9411 160.136 78.1029 160.455 82.3848C160.774 86.6687 160.75 92.049 160.75 99.1504V124.24C160.75 131.342 160.774 136.722 160.455 141.006C160.136 145.287 159.474 148.449 158.116 151.116C155.713 155.837 151.919 159.625 147.201 162.031C144.536 163.39 141.372 164.052 137.088 164.371C132.802 164.69 127.42 164.665 120.324 164.665H44.6758C37.5799 164.665 32.1981 164.69 27.9121 164.371C23.6283 164.052 20.4642 163.39 17.7988 162.031C13.0811 159.625 9.28744 155.837 6.88379 151.116C5.52579 148.449 4.86412 145.287 4.54492 141.006C4.22555 136.722 4.25 131.342 4.25 124.24V99.1504C4.25 92.049 4.22558 86.6687 4.54492 82.3848C4.86414 78.1029 5.52563 74.9411 6.88379 72.2734C9.28748 67.5521 13.081 63.7642 17.7988 61.3584C20.4642 59.9992 23.6283 59.3385 27.9121 59.0195C32.1981 58.7004 37.5799 58.7246 44.6758 58.7246Z" fill="url(#paint1_radial_124_3158)" fill-opacity="0.5" stroke="white" stroke-width="0.5"/>
<defs>
<radialGradient id="paint0_radial_124_3158" cx="0" cy="0" r="1" gradientTransform="matrix(-156.999 -141.793 156.999 -236.568 160.999 164.916)" gradientUnits="userSpaceOnUse">
<stop stop-color="#D1D1D1"/>
<stop offset="1" stop-color="#D1D1D1"/>
<stop offset="1" stop-color="#A4A4A4"/>
</radialGradient>
<radialGradient id="paint1_radial_124_3158" cx="0" cy="0" r="1" gradientTransform="matrix(-157 -106.441 157 -177.586 161 164.916)" gradientUnits="userSpaceOnUse">
<stop stop-color="white"/>
<stop offset="1" stop-color="white"/>
<stop offset="1" stop-color="white"/>
</radialGradient>
</defs>
</svg>
