<svg width="165" height="166" viewBox="0 0 165 166" fill="none" xmlns="http://www.w3.org/2000/svg">
<mask id="fcb-mask" fill="white">
<path d="M64.8438 23.123C77.906 23.1233 90.454 37.9482 103.516 37.9482H120.506C134.68 37.9482 141.767 37.9486 147.181 40.707C151.942 43.1334 155.814 47.0048 158.24 51.7666C160.999 57.1804 160.999 64.2683 160.999 78.4424V124.423C160.999 138.597 160.999 145.684 158.24 151.098C155.814 155.859 151.942 159.731 147.181 162.157C141.767 164.916 134.68 164.916 120.506 164.916H44.4941C30.32 164.916 23.2322 164.916 17.8184 162.157C13.0566 159.731 9.18513 155.859 6.75879 151.098C4.00035 145.684 4 138.597 4 124.423V48.4316C4.0001 34.4542 15.3311 23.123 29.3086 23.123H64.8438Z"/>
</mask>
<path d="M64.8438 23.123C77.906 23.1233 90.454 37.9482 103.516 37.9482H120.506C134.68 37.9482 141.767 37.9486 147.181 40.707C151.942 43.1334 155.814 47.0048 158.24 51.7666C160.999 57.1804 160.999 64.2683 160.999 78.4424V124.423C160.999 138.597 160.999 145.684 158.24 151.098C155.814 155.859 151.942 159.731 147.181 162.157C141.767 164.916 134.68 164.916 120.506 164.916H44.4941C30.32 164.916 23.2322 164.916 17.8184 162.157C13.0566 159.731 9.18513 155.859 6.75879 151.098C4.00035 145.684 4 138.597 4 124.423V48.4316C4.0001 34.4542 15.3311 23.123 29.3086 23.123H64.8438Z" fill="#D9D9D9"/>
<path d="M64.8438 23.123C77.906 23.1233 90.454 37.9482 103.516 37.9482H120.506C134.68 37.9482 141.767 37.9486 147.181 40.707C151.942 43.1334 155.814 47.0048 158.24 51.7666C160.999 57.1804 160.999 64.2683 160.999 78.4424V124.423C160.999 138.597 160.999 145.684 158.24 151.098C155.814 155.859 151.942 159.731 147.181 162.157C141.767 164.916 134.68 164.916 120.506 164.916H44.4941C30.32 164.916 23.2322 164.916 17.8184 162.157C13.0566 159.731 9.18513 155.859 6.75879 151.098C4.00035 145.684 4 138.597 4 124.423V48.4316C4.0001 34.4542 15.3311 23.123 29.3086 23.123H64.8438Z" fill="url(#fcb-grad)" fill-opacity="0.2"/>
<path d="M64.8438 23.123L64.8438 22.7382H64.8438V23.123ZM103.516 37.9482V38.333H120.506V37.5634H103.516V37.9482ZM120.506 37.9482V38.333C127.599 38.333 132.896 38.3334 137.097 38.6767C141.293 39.0197 144.362 39.7029 147.006 41.0499L147.355 40.3642C144.585 38.9527 141.404 38.2565 137.16 37.9097C132.92 37.5632 127.586 37.5634 120.506 37.5634V37.9482ZM147.181 40.707L147.006 41.0499C151.695 43.4393 155.508 47.2519 157.897 51.9413L158.583 51.5919C156.12 46.7577 152.19 42.8274 147.355 40.3642L147.181 40.707ZM158.24 51.7666L157.897 51.9413C159.244 54.5849 159.928 57.6541 160.271 61.8507C160.614 66.0519 160.614 71.349 160.614 78.4424H161.384C161.384 71.3617 161.384 66.0278 161.038 61.788C160.691 57.5438 159.995 54.3621 158.583 51.5919L158.24 51.7666ZM160.999 78.4424H160.614V124.423H161.384V78.4424H160.999ZM160.999 124.423H160.614C160.614 131.516 160.614 136.813 160.271 141.014C159.928 145.21 159.244 148.279 157.897 150.923L158.583 151.272C159.995 148.502 160.691 145.321 161.038 141.077C161.384 136.837 161.384 131.503 161.384 124.423H160.999ZM4 124.423H4.3848V48.4316H3.6152V124.423H4ZM4 48.4316L4.3848 48.4316C4.3849 34.6667 15.5437 23.5079 29.3086 23.5079V22.7382C15.1186 22.7382 3.6153 34.2417 3.6152 48.4316L4 48.4316ZM29.3086 23.123V23.5079H64.8438V22.7382H29.3086V23.123ZM64.8438 23.123L64.8437 23.5079C71.2511 23.508 77.5586 27.1474 83.9872 30.8688C90.3637 34.5599 96.8613 38.333 103.516 38.333V37.5634C97.1089 37.5634 90.8014 33.9241 84.3728 30.2027C77.9963 26.5115 71.4987 22.7384 64.8438 22.7382L64.8438 23.123Z" fill="white" mask="url(#fcb-mask)"/>
<defs>
<radialGradient id="fcb-grad" cx="0" cy="0" r="1" gradientTransform="matrix(-156.999 -141.793 156.999 -236.568 160.999 164.916)" gradientUnits="userSpaceOnUse">
<stop stop-color="#D1D1D1"/>
<stop offset="1" stop-color="#A4A4A4"/>
</radialGradient>
</defs>
</svg>
