<svg width="165" height="166" viewBox="0 0 165 166" fill="none" xmlns="http://www.w3.org/2000/svg">
<rect x="4" y="58.4746" width="156.999" height="106.44" rx="25.3085" fill="black" fill-opacity="0.16"/>
<path d="M44.6758 58.7246H120.324C127.42 58.7246 132.802 58.7004 137.088 59.0195C141.372 59.3385 144.536 59.9992 147.201 61.3584C151.919 63.7642 155.713 67.5521 158.116 72.2734C159.474 74.9411 160.136 78.1029 160.455 82.3848C160.774 86.6687 160.75 92.049 160.75 99.1504V124.24C160.75 131.342 160.774 136.722 160.455 141.006C160.136 145.287 159.474 148.449 158.116 151.116C155.713 155.837 151.919 159.625 147.201 162.031C144.536 163.39 141.372 164.052 137.088 164.371C132.802 164.69 127.42 164.665 120.324 164.665H44.6758C37.5799 164.665 32.1981 164.69 27.9121 164.371C23.6283 164.052 20.4642 163.39 17.7988 162.031C13.0811 159.625 9.28744 155.837 6.88379 151.116C5.52579 148.449 4.86412 145.287 4.54492 141.006C4.22555 136.722 4.25 131.342 4.25 124.24V99.1504C4.25 92.049 4.22558 86.6687 4.54492 82.3848C4.86414 78.1029 5.52563 74.9411 6.88379 72.2734C9.28748 67.5521 13.081 63.7642 17.7988 61.3584C20.4642 59.9992 23.6283 59.3385 27.9121 59.0195C32.1981 58.7004 37.5799 58.7246 44.6758 58.7246Z" fill="url(#fcf-grad)" stroke="white" stroke-width="0.9"/>
<defs>
<radialGradient id="fcf-grad" cx="0" cy="0" r="1" gradientTransform="matrix(-157 -106.441 157 -177.586 161 164.916)" gradientUnits="userSpaceOnUse">
<stop stop-color="#D4D4D4"/>
<stop offset="1" stop-color="#BCBCBC"/>
</radialGradient>
</defs>
</svg>
