<svg width="80" height="72" viewBox="0 0 80 72" fill="none" xmlns="http://www.w3.org/2000/svg">
<path d="M20.7632 38.2589C20.2714 36.5268 19.5154 34.8314 18.4805 33.1653L6.64947 13.4662C6.08433 12.4901 5.35776 11.7488 4.48437 11.2424C3.70639 10.7947 3.0457 10.6699 2.50992 10.8754L2.31908 10.9708C1.75395 11.2938 1.46777 11.9544 1.46777 12.9599C1.46777 13.9654 1.75395 14.9562 2.31908 15.9396C3.50807 17.98 4.80721 20.1966 6.22372 22.5819C7.64025 24.9746 8.60898 26.6993 9.12275 27.7635C9.84935 29.3635 10.3485 30.9122 10.6347 32.4094C10.9136 33.8993 11.0605 35.4185 11.0605 36.9598C11.0605 39.0883 11.4862 41.3415 12.3376 43.7268C13.1816 46.1121 14.3338 48.314 15.7797 50.3323C16.6531 51.5433 17.5705 52.725 18.5247 53.87C19.4788 55.0076 20.4696 56.1159 21.4971 57.1874V43.1617C21.4971 41.6277 21.2549 39.991 20.7632 38.2589Z" fill="#171717" stroke="white" stroke-width="0.733945"/>
<path d="M36.9691 37.0032C36.9691 38.1335 36.7048 38.9848 36.1764 39.5499C36.0149 39.7261 35.8241 39.8729 35.6112 39.9976C34.7085 40.5114 33.6149 40.394 32.3305 39.6528C31.0388 38.9041 29.9452 37.7591 29.0424 36.2031C28.1397 34.6472 27.6846 33.1279 27.6846 31.6453C27.6846 30.1628 28.1397 29.172 29.0424 28.6583L29.3213 28.5187C30.1726 28.1738 31.1709 28.3279 32.3305 29.0031C33.6149 29.7444 34.7085 30.8967 35.6112 32.4527C35.7213 32.6435 35.824 32.8343 35.9268 33.0252C36.624 34.3903 36.9691 35.7115 36.9691 37.0032Z" fill="#171717" stroke="white" stroke-width="0.733945"/>
<path d="M35.6104 39.9974L36.1756 39.7185V39.5498C36.0141 39.726 35.8232 39.8727 35.6104 39.9974Z" fill="#171717" stroke="white" stroke-width="0.733945"/>
<path d="M65.5703 27.9386C65.5703 29.4211 65.1152 30.4194 64.2125 30.9331L49.5336 38.2726C50.4363 37.7588 50.8914 36.7606 50.8914 35.278C50.8914 34.3973 50.7299 33.502 50.407 32.5845C50.1868 31.9753 49.8932 31.3515 49.5336 30.7276C48.6308 29.1717 47.5373 28.0194 46.2456 27.2781C45.0933 26.6029 44.0877 26.4487 43.2363 26.7937L49.3501 23.7331L57.6364 19.5936C58.5392 19.0799 59.6401 19.19 60.9245 19.9387C62.2162 20.6799 63.3097 21.8322 64.2125 23.3882C65.1152 24.9442 65.5703 26.4633 65.5703 27.9386Z" fill="#171717" stroke="white" stroke-width="0.733945"/>
<path d="M50.8919 35.2785C50.8919 36.7611 50.4368 37.7592 49.534 38.273C49.1744 38.4785 48.7781 38.5886 48.3525 38.5886C47.7213 38.5959 47.0166 38.3758 46.246 37.9281C45.7395 37.6345 45.2625 37.2748 44.8148 36.8492C44.4919 36.5556 44.1836 36.2253 43.8974 35.8583C43.5671 35.44 43.2515 34.9849 42.9579 34.4785C42.0625 32.9226 41.6074 31.4033 41.6074 29.9207C41.6074 28.4381 42.0258 27.5281 42.8479 27.007C42.8846 26.9777 42.9212 26.9556 42.9579 26.9336L43.2367 26.7941C44.0881 26.4492 45.0937 26.6034 46.246 27.2786C47.5377 28.0199 48.6313 29.1721 49.534 30.7281C49.8937 31.3519 50.1872 31.9758 50.4073 32.5849C50.7303 33.5024 50.8919 34.3978 50.8919 35.2785Z" fill="#171717" stroke="white" stroke-width="0.733945"/>
<path d="M63.1856 48.5926C63.1856 49.5981 62.8993 50.2659 62.3342 50.5889C61.1525 51.2641 59.8462 51.9614 58.4297 52.6807C58.2242 52.7834 58.026 52.8861 57.8351 52.9889C56.7416 53.5834 55.9709 54.1045 55.5305 54.5596C54.8039 55.3229 54.3049 56.2917 54.0187 57.4587C53.7398 58.6256 53.5929 59.976 53.5929 61.5173C53.5929 63.6458 53.1673 65.4293 52.3232 66.8605C51.7948 67.7486 51.149 68.4165 50.371 68.8789L50.349 68.8935C49.8793 69.1651 49.358 69.3632 48.8002 69.488C47.9782 69.6568 47.0829 69.7669 46.1361 69.811C45.182 69.8477 44.1838 69.8109 43.1562 69.6861V55.6678C43.1562 54.1266 43.4132 52.7688 43.927 51.5871C44.4407 50.4055 45.1892 49.5908 46.1727 49.1504L52.7637 45.7889L58.004 43.1174C58.3929 42.9339 58.8333 42.9045 59.3177 43.0367C59.5966 43.1027 59.8975 43.2275 60.2058 43.411C61.0572 43.9027 61.769 44.6367 62.3342 45.6201C62.8993 46.5963 63.1856 47.5871 63.1856 48.5926Z" fill="#171717" stroke="white" stroke-width="0.733945"/>
<path d="M38.5178 56.1813V68.8711C37.5343 68.5996 36.5142 68.2473 35.4573 67.8142C34.4004 67.3886 33.3582 66.8675 32.3306 66.273C31.2958 65.6785 30.2536 64.9886 29.1967 64.2032C28.1398 63.4106 27.1197 62.5886 26.1436 61.7298V49.0399C26.1436 46.9629 26.7454 45.5243 27.9564 44.7169C28.1986 44.5555 28.4481 44.4308 28.705 44.3428C29.5858 44.0345 30.5838 44.1298 31.692 44.6436C31.8975 44.739 32.1105 44.8491 32.3306 44.9739C33.7912 45.8179 35.0756 47.1243 36.1765 48.8711C36.3527 49.1574 36.5288 49.451 36.6976 49.7593C37.9086 51.9684 38.5178 54.1116 38.5178 56.1813Z" fill="#171717" stroke="white" stroke-width="0.733945"/>
<path d="M52.7638 45.7895L46.1728 49.151C45.1893 49.5914 44.4408 50.4061 43.927 51.5877C43.4133 52.7694 43.1564 54.1272 43.1564 55.6684V66.6189C40.6463 67.8813 38.6279 68.8721 38.5178 68.8721V56.1822C38.5178 54.1125 37.9086 51.9694 36.6976 49.7602C36.5288 49.4519 36.3527 49.1583 36.1766 48.8721C35.0756 47.1253 33.7912 45.8189 32.3307 44.9749C32.1105 44.8501 31.8976 44.74 31.6921 44.6446C30.5838 44.1308 29.5858 44.0354 28.7051 44.3437L30.716 43.3382L36.1766 40.6079L42.6353 37.3785C43.2885 36.9454 44.0151 36.7694 44.8151 36.8501C45.2628 37.2758 45.7399 37.6353 46.2463 37.9289C47.0169 38.3766 47.7216 38.5969 48.3528 38.5895C49.4904 39.5437 50.4958 40.8281 51.3765 42.4207C52.0003 43.5583 52.4629 44.6813 52.7638 45.7895Z" fill="#171717" stroke="white" stroke-width="0.733945"/>
<path d="M36.9691 17.4807C36.9691 18.9632 36.514 19.9541 35.6112 20.4752C34.7085 20.9889 33.6149 20.8715 32.3305 20.1302C31.4571 19.6238 30.6719 18.9339 29.982 18.0531C29.6443 17.6348 29.336 17.1724 29.0424 16.6733C28.1397 15.1174 27.6846 13.6054 27.6846 12.1229C27.6846 10.6403 28.1029 9.73028 28.9396 9.20918C28.9763 9.17982 29.0057 9.15773 29.0424 9.13571L29.3213 8.99626C30.1726 8.6513 31.1709 8.80551 32.3305 9.48074C33.6149 10.222 34.7085 11.3742 35.6112 12.9302C35.9709 13.5541 36.2644 14.1779 36.4846 14.7871C36.8075 15.7045 36.9691 16.5999 36.9691 17.4807Z" fill="#171717" stroke="white" stroke-width="0.733945"/>
<path d="M36.1759 39.7186V40.6067L30.7154 43.3371L28.7044 44.3426C28.4475 44.4306 28.198 44.5553 27.9558 44.7168C26.7448 45.5242 26.1429 46.9627 26.1429 49.0397V54.8673L21.497 57.1866V43.1608C21.497 41.6269 21.2548 39.9902 20.763 38.2581C20.2713 36.526 19.5153 34.8306 18.4804 33.1645L6.64932 13.4654C6.08418 12.4893 5.35761 11.748 4.48422 11.2416C3.70624 10.7939 3.04555 10.6691 2.50977 10.8746L16.9978 3.63055C17.563 3.30028 18.2897 3.39569 19.1631 3.90211C20.0365 4.40853 20.7631 5.14984 21.3282 6.12599L22.0842 7.38103L17.5924 9.61956L15.3979 10.7205L15.1191 10.86C14.2163 11.3738 13.7685 12.3719 13.7685 13.8471C13.7685 15.3223 14.2163 16.8416 15.1191 18.3975C16.0218 19.9535 17.1154 21.1058 18.4071 21.8544C19.6915 22.5957 20.7925 22.7131 21.6952 22.1994L24.0658 21.0177L28.8364 18.6251L33.1593 25.8251C33.2841 26.0232 33.4015 26.2214 33.5189 26.4196L29.3208 28.5186L29.042 28.6582C28.1393 29.1719 27.6841 30.17 27.6841 31.6453C27.6841 33.1205 28.1393 34.6471 29.042 36.2031C29.9448 37.759 31.0383 38.904 32.33 39.6526C33.6144 40.3939 34.708 40.5113 35.6107 39.9975L36.1759 39.7186Z" fill="#171717" stroke="white" stroke-width="0.733945"/>
<path d="M2.31934 10.9704L2.51017 10.875" stroke="white" stroke-width="0.733945"/>
<path d="M42.9581 34.4789C43.2516 34.9853 43.5672 35.4403 43.8975 35.8587L36.1764 39.7192V39.5504C36.7048 38.9853 36.9691 38.1339 36.9691 37.0036C36.9691 35.7119 36.624 34.3908 35.9268 33.033C35.824 32.8348 35.7214 32.644 35.6113 32.4532C34.7085 30.8972 33.6149 29.7449 32.3305 29.0036C31.1709 28.3284 30.1727 28.1743 29.3213 28.5192L33.5195 26.4202L43.7214 21.3192C44.6241 20.8055 45.7177 20.9156 47.0094 21.6642C47.8828 22.1633 48.6607 22.8605 49.3506 23.7339L43.2369 26.7945L42.9581 26.9338C42.9214 26.9559 42.8847 26.978 42.848 27.0073C42.026 27.5284 41.6075 28.5046 41.6075 29.9211C41.6075 31.3376 42.0626 32.9229 42.9581 34.4789Z" fill="#171717" stroke="white" stroke-width="0.733945"/>
<path d="M51.648 10.1417C51.648 11.6243 51.1929 12.6152 50.2902 13.1363L35.6113 20.4757C36.514 19.9546 36.9691 18.9637 36.9691 17.4811C36.9691 16.6004 36.8075 15.7051 36.4846 14.7876C36.2644 14.1785 35.9709 13.5546 35.6113 12.9308C34.7085 11.3748 33.6149 10.2225 32.3305 9.48121C31.1709 8.80598 30.1727 8.65185 29.3213 8.99681L35.4351 5.93621L43.7214 1.79675C44.6241 1.28299 45.7177 1.39315 47.0094 2.14178C48.2938 2.88306 49.3874 4.03532 50.2902 5.59128C51.1929 7.14724 51.648 8.66646 51.648 10.1417Z" fill="#171717" stroke="white" stroke-width="0.733945"/>
<path d="M23.0455 19.2054C23.0455 20.6879 22.5979 21.6787 21.6952 22.1998C20.7924 22.7135 19.6915 22.5962 18.4071 21.8549C17.1153 21.1063 16.0218 19.9539 15.1191 18.398C14.2163 16.842 13.7686 15.3301 13.7686 13.8475C13.7686 12.3649 14.2163 11.3742 15.1191 10.8604L15.3978 10.7209C16.2492 10.3759 17.2475 10.5301 18.4071 11.2053C18.4658 11.242 18.5245 11.2788 18.5832 11.3155C19.7942 12.0567 20.8364 13.1723 21.6952 14.6548C22.5465 16.1227 22.9943 17.5613 23.0384 18.9558C23.0457 19.0438 23.0455 19.1246 23.0455 19.2054Z" fill="#171717" stroke="white" stroke-width="0.733945"/>
<path d="M29.0425 16.6737C29.3361 17.1727 29.6444 17.6351 29.982 18.0535L28.837 18.626L24.0663 21.0186L21.6957 22.2003C22.5984 21.6792 23.0461 20.6883 23.0461 19.2058C23.0461 19.125 23.0462 19.0442 23.0389 18.9562C22.9948 17.5617 22.5471 16.1232 21.6957 14.6553C20.837 13.1727 19.7948 12.0571 18.5838 11.3159C18.5251 11.2792 18.4664 11.2425 18.4077 11.2058C17.2481 10.5305 16.2498 10.3764 15.3984 10.7214L17.5929 9.62044L22.0847 7.38184L29.7985 3.52139C30.7013 3.00763 31.7948 3.1177 33.0866 3.86632C33.96 4.36541 34.7452 5.06262 35.4351 5.93601L29.3213 8.99659L29.0425 9.13597C29.0425 9.13597 28.9763 9.18008 28.9396 9.20944C28.103 9.73054 27.6847 10.7067 27.6847 12.1232C27.6847 13.5397 28.1398 15.1177 29.0425 16.6737Z" fill="#171717" stroke="white" stroke-width="0.733945"/>
<path d="M77.8638 41.2533C77.8638 42.2368 77.5482 42.9266 76.9977 43.2569C76.9904 43.2643 76.9757 43.2717 76.9684 43.279L76.9023 43.3157C75.75 43.9689 74.4803 44.6441 73.1077 45.3414C71.6912 46.0607 70.7223 46.6845 70.2085 47.2203C69.4819 47.9836 68.983 48.9524 68.6967 50.1194C68.4178 51.2863 68.271 52.6367 68.271 54.178C68.271 56.3065 67.8453 58.09 67.0012 59.5212C66.4434 60.4607 65.7461 61.1578 64.9094 61.6202L64.5424 61.8037L50.3701 68.879C51.1481 68.4166 51.7939 67.7487 52.3223 66.8607C53.1664 65.4295 53.5921 63.6459 53.5921 61.5175C53.5921 59.9762 53.7389 58.6258 54.0178 57.4588C54.3041 56.2919 54.803 55.323 55.5296 54.5597C55.97 54.1047 56.7407 53.5835 57.8343 52.989C58.0251 52.8863 58.2233 52.7836 58.4288 52.6808C59.8453 51.9616 61.1516 51.2643 62.3333 50.589C62.8984 50.2661 63.1847 49.5982 63.1847 48.5927C63.1847 47.5872 62.8984 46.5964 62.3333 45.6203C61.7681 44.6368 61.0563 43.9029 60.2049 43.4111C59.8967 43.2276 59.5957 43.1029 59.3168 43.0368C58.8324 42.9047 58.3921 42.9341 58.0031 43.1175L72.682 35.7781C73.2985 35.4845 74.0326 35.5799 74.884 36.0717C75.7353 36.5634 76.4473 37.2974 77.0124 38.2808C77.5775 39.257 77.8638 40.2478 77.8638 41.2533Z" fill="#171717" stroke="white" stroke-width="0.733945"/>
<path d="M64.9615 61.5977L64.9102 61.6197" stroke="white" stroke-width="0.733945"/>
<path d="M50.3487 68.8936L50.1357 68.9964" stroke="white" stroke-width="0.733945"/>
</svg>
